<?xml version="1.0" encoding="iso-8859-1"?>
<!-- Generator: Adobe Illustrator 19.0.0, SVG Export Plug-In . SVG Version: 6.00 Build 0)  -->
<svg version="1.1" id="Capa_1" xmlns="http://www.w3.org/2000/svg" xmlns:xlink="http://www.w3.org/1999/xlink" x="0px" y="0px"
	 viewBox="0 0 512 512" style="enable-background:new 0 0 512 512;" xml:space="preserve">
<path style="fill:#7366AA;" d="M352,368c0,0,56-80,56-176S344,32,280,32V4.912c0-4.115-4.76-6.4-7.966-3.822
	c-17.456,14.041-60.715,54.289-100.608,87.698c-15.186,12.718-18.342,34.839-7.354,51.32c1.748,2.622,3.495,5.243,5.2,7.779
	c8.454,12.575,24.91,16.948,38.488,10.221C224.789,149.67,248.395,137.442,272,128c8,40-102.281,89.984-120,152c-16,56,8,88,8,88
	H352z"/>
<path style="fill:#494170;" d="M256,80h-17c-4.418,0-8-3.582-8-8s3.582-8,8-8h17c4.418,0,8,3.582,8,8S260.418,80,256,80z"/>
<g>
	<path style="fill:#6A56A8;" d="M280,32c0,0,104,48,96,144s-56,176-72,192h48c0,0,56-80,56-176S344,32,280,32z"/>
	<path style="fill:#6A56A8;" d="M176,288c14.125-56.502,59.635-84.847,80-112c24-32,16-48,16-48c8,40-102.281,89.983-120,152
		c-16,56,8,88,8,88h32.794C179.643,349.954,167.385,322.458,176,288z"/>
</g>
<path id="SVGCleanerId_0" style="fill:#EDBC53;" d="M396.572,433.436c-8.641-6.019-16.043-13.42-22.002-21.999
	c-7.518-10.823-12.59-23.508-14.668-36.684C359.289,370.864,355.937,368,352,368H160c-3.937,0-7.289,2.864-7.902,6.753
	c-2.078,13.176-7.15,25.86-14.668,36.684c-5.959,8.579-13.361,15.98-22.002,21.999c-2.868,1.997-4.107,5.626-3.061,8.961
	C113.414,445.73,116.505,448,120,448h272c3.495,0,6.586-2.27,7.633-5.604C400.68,439.062,399.44,435.433,396.572,433.436z"/>
<g>
	<path id="SVGCleanerId_0_1_" style="fill:#EDBC53;" d="M396.572,433.436c-8.641-6.019-16.043-13.42-22.002-21.999
		c-7.518-10.823-12.59-23.508-14.668-36.684C359.289,370.864,355.937,368,352,368H160c-3.937,0-7.289,2.864-7.902,6.753
		c-2.078,13.176-7.15,25.86-14.668,36.684c-5.959,8.579-13.361,15.98-22.002,21.999c-2.868,1.997-4.107,5.626-3.061,8.961
		C113.414,445.73,116.505,448,120,448h272c3.495,0,6.586-2.27,7.633-5.604C400.68,439.062,399.44,435.433,396.572,433.436z"/>
</g>
<g>
	<path style="fill:#F09C48;" d="M144.366,442.396c-1.047-3.335,0.192-6.964,3.061-8.961c8.641-6.019,16.043-13.42,22.002-21.999
		c7.518-10.823,12.59-23.508,14.668-36.684c0.613-3.889,3.966-6.753,7.902-6.753H160c-3.937,0-7.289,2.864-7.902,6.753
		c-2.078,13.176-7.15,25.86-14.668,36.684c-5.959,8.579-13.361,15.98-22.002,21.999c-2.868,1.997-4.107,5.626-3.061,8.961
		C113.414,445.73,116.505,448,120,448h31.999C148.504,448,145.413,445.73,144.366,442.396z"/>
	<path style="fill:#F09C48;" d="M416,432H96c-4.418,0-8,3.582-8,8v64c0,4.418,3.582,8,8,8h320c4.418,0,8-3.582,8-8v-64
		C424,435.582,420.418,432,416,432z"/>
</g>
<g>
	<path style="fill:#E57D37;" d="M144,504v-64c0-4.418,3.582-8,8-8H96c-4.418,0-8,3.582-8,8v64c0,4.418,3.582,8,8,8h56
		C147.582,512,144,508.418,144,504z"/>
	<rect x="248" y="432" style="fill:#E57D37;" width="16" height="80"/>
	<rect x="312" y="432" style="fill:#E57D37;" width="16" height="80"/>
	<rect x="360" y="432" style="fill:#E57D37;" width="16" height="80"/>
	<rect x="184" y="432" style="fill:#E57D37;" width="16" height="80"/>
	<rect x="136" y="432" style="fill:#E57D37;" width="16" height="80"/>
</g>
<g>
</g>
<g>
</g>
<g>
</g>
<g>
</g>
<g>
</g>
<g>
</g>
<g>
</g>
<g>
</g>
<g>
</g>
<g>
</g>
<g>
</g>
<g>
</g>
<g>
</g>
<g>
</g>
<g>
</g>
</svg>
