<?xml version="1.0" encoding="iso-8859-1"?>
<!-- Generator: Adobe Illustrator 19.0.0, SVG Export Plug-In . SVG Version: 6.00 Build 0)  -->
<svg version="1.1" id="Capa_1" xmlns="http://www.w3.org/2000/svg" xmlns:xlink="http://www.w3.org/1999/xlink" x="0px" y="0px"
	 viewBox="0 0 512.002 512.002" style="enable-background:new 0 0 512.002 512.002;" xml:space="preserve">
<path style="fill:#F89021;" d="M256,238.294l-102.089-119.61c-7.165-8.394-20.136-8.394-27.301,0L24.522,238.294H256z"/>
<path style="opacity:0.15;enable-background:new    ;" d="M186.893,157.326l-30.888,36.189c-8.263,9.681-23.224,9.681-31.487,0
	L93.63,157.326l-69.107,80.968H256L186.893,157.326z"/>
<path style="fill:#F89021;" d="M487.478,238.294l-102.089-119.61c-7.165-8.394-20.136-8.394-27.301,0L256,238.294H487.478z"/>
<path style="opacity:0.15;enable-background:new    ;" d="M418.371,157.326l-30.888,36.189c-8.263,9.681-23.224,9.681-31.487,0
	l-30.888-36.189L256,238.294h231.478L418.371,157.326z"/>
<path style="fill:#F8CF32;" d="M472.956,119.706l-85.473,100.143c-8.263,9.681-23.224,9.681-31.487,0L269.65,118.685
	c-7.164-8.394-20.136-8.394-27.301,0l-86.345,101.164c-8.263,9.681-23.224,9.681-31.487,0L39.044,119.706
	c-4.977-5.831-14.522-2.312-14.522,5.355v261.28c0,7.33,5.942,13.272,13.272,13.272h436.411c7.33,0,13.272-5.942,13.272-13.272
	v-261.28C487.478,117.394,477.933,113.875,472.956,119.706z"/>
<ellipse style="opacity:0.15;enable-background:new    ;" cx="251.3" cy="286.051" rx="49.04" ry="67.51"/>
<circle style="opacity:0.15;enable-background:new    ;" cx="367.04" cy="286.051" r="23.643"/>
<circle style="opacity:0.15;enable-background:new    ;" cx="135.56" cy="286.051" r="23.643"/>
<path style="fill:#394049;" d="M24.522,370.617v15.724c0,7.33,5.942,13.272,13.272,13.272h436.411
	c7.33,0,13.272-5.942,13.272-13.272v-15.724H24.522z"/>
<path style="opacity:0.15;enable-background:new    ;" d="M472.956,119.706l-3.484,4.082c0.06,0.411,0.099,0.833,0.099,1.273v93.292
	c-9.72,8.97-16.726,34.227-16.726,64.006s7.006,55.036,16.726,64.006v39.975c0,7.33-5.942,13.272-13.272,13.272h17.906
	c7.33,0,13.272-5.942,13.272-13.272V125.061C487.478,117.395,477.933,113.875,472.956,119.706z"/>
<g>
	<ellipse style="fill:#1BC56E;" cx="256" cy="280.361" rx="49.04" ry="67.51"/>
	<ellipse style="fill:#1BC56E;" cx="24.522" cy="280.361" rx="24.522" ry="67.51"/>
	<ellipse style="fill:#1BC56E;" cx="487.48" cy="280.361" rx="24.522" ry="67.51"/>
</g>
<g>
	<circle style="fill:#FE98BF;" cx="371.74" cy="280.361" r="23.643"/>
	<circle style="fill:#FE98BF;" cx="140.26" cy="280.361" r="23.643"/>
</g>
<g>
</g>
<g>
</g>
<g>
</g>
<g>
</g>
<g>
</g>
<g>
</g>
<g>
</g>
<g>
</g>
<g>
</g>
<g>
</g>
<g>
</g>
<g>
</g>
<g>
</g>
<g>
</g>
<g>
</g>
</svg>
