<?xml version="1.0" encoding="iso-8859-1"?>
<!-- Generator: Adobe Illustrator 19.0.0, SVG Export Plug-In . SVG Version: 6.00 Build 0)  -->
<svg version="1.1" id="Capa_1" xmlns="http://www.w3.org/2000/svg" xmlns:xlink="http://www.w3.org/1999/xlink" x="0px" y="0px"
	 viewBox="0 0 512 512" style="enable-background:new 0 0 512 512;" xml:space="preserve">
<path style="fill:#B2DCFE;" d="M415.26,493.719l-15.931-95.584c-1.205-7.232-7.463-12.535-14.796-12.535H127.466
	c-7.333,0-13.591,5.303-14.796,12.535l-16.066,96.398c-0.725,4.35,0.501,8.799,3.351,12.162c2.85,3.364,7.036,5.305,11.446,5.305
	h289.198c0.005,0,0.01,0,0.02,0c8.284,0,15-6.716,15-15C415.62,495.872,415.495,494.774,415.26,493.719z"/>
<path style="fill:#86CAFD;" d="M415.26,493.719l-15.931-95.584c-1.205-7.232-7.463-12.535-14.796-12.535H256.01V512h144.589
	c0.005,0,0.01,0,0.02,0c8.284,0,15-6.716,15-15C415.62,495.872,415.495,494.774,415.26,493.719z"/>
<path style="fill:#B2DCFE;" d="M255.998,0c-52.566,0-95.332,42.767-95.332,95.333c0,52.568,42.766,95.333,95.332,95.333
	c52.568,0,95.334-42.765,95.334-95.333C351.333,42.767,308.566,0,255.998,0z"/>
<path style="fill:#86CAFD;" d="M351.333,95.333c0-52.563-42.76-95.327-95.322-95.333v190.666
	C308.573,190.66,351.333,147.898,351.333,95.333z"/>
<path style="fill:#B2DCFE;" d="M351.066,397.666l-32.018-224.12c-1.056-7.391-7.385-12.88-14.85-12.88h-96.4
	c-7.465,0-13.794,5.489-14.85,12.88L160.815,398.48c-0.614,4.304,0.669,8.664,3.518,11.948c2.85,3.285,6.982,5.172,11.332,5.172
	h160.666c0.008,0,0.015,0,0.015,0c8.29,0,15.005-6.715,15.005-15C351.352,399.596,351.253,398.615,351.066,397.666z"/>
<path style="fill:#86CAFD;" d="M351.066,397.666l-32.018-224.12c-1.056-7.391-7.385-12.88-14.85-12.88h-48.189V415.6h80.322
	c0.008,0,0.015,0,0.015,0c8.29,0,15.005-6.715,15.005-15C351.352,399.596,351.253,398.615,351.066,397.666z"/>
<g>
	<path style="fill:#18A7FC;" d="M336.333,190.666H175.667c-8.284,0-15-6.715-15-15c0-8.283,6.716-15,15-15h160.666
		c8.284,0,15,6.717,15,15C351.333,183.951,344.617,190.666,336.333,190.666z"/>
	<path style="fill:#18A7FC;" d="M416.667,415.6H95.332c-8.285,0-15-6.715-15-15c0-8.283,6.715-15,15-15h321.334
		c8.283,0,15,6.717,15,15C431.667,408.885,424.95,415.6,416.667,415.6z"/>
	<path style="fill:#18A7FC;" d="M432.732,512H79.266c-8.284,0-15-6.716-15-15c0-8.285,6.716-15,15-15h353.467
		c8.283,0,15,6.715,15,15C447.732,505.284,441.016,512,432.732,512z"/>
	<path style="fill:#18A7FC;" d="M351.333,175.666c0-8.283-6.716-15-15-15H256.01v30h80.322
		C344.617,190.666,351.333,183.951,351.333,175.666z"/>
	<path style="fill:#18A7FC;" d="M431.667,400.6c0-8.283-6.717-15-15-15H256.01v30h160.656
		C424.95,415.6,431.667,408.885,431.667,400.6z"/>
	<path style="fill:#18A7FC;" d="M432.732,482H256.01v30h176.723c8.283,0,15-6.716,15-15C447.732,488.715,441.016,482,432.732,482z"
		/>
</g>
<g>
</g>
<g>
</g>
<g>
</g>
<g>
</g>
<g>
</g>
<g>
</g>
<g>
</g>
<g>
</g>
<g>
</g>
<g>
</g>
<g>
</g>
<g>
</g>
<g>
</g>
<g>
</g>
<g>
</g>
</svg>
