<?xml version="1.0" encoding="iso-8859-1"?>
<!-- Generator: Adobe Illustrator 19.0.0, SVG Export Plug-In . SVG Version: 6.00 Build 0)  -->
<svg version="1.1" id="Capa_1" xmlns="http://www.w3.org/2000/svg" xmlns:xlink="http://www.w3.org/1999/xlink" x="0px" y="0px"
	 viewBox="0 0 512 512" style="enable-background:new 0 0 512 512;" xml:space="preserve">
<path style="fill:#FF9800;" d="M400.36,337.42v91.8H111.64v-91.8c0-21.68,11.57-40.72,28.85-51.26l25.64-170.66l2.26-15l2.25-15
	h170.72l2.25,15l2.26,15l25.64,170.66C388.79,296.7,400.36,315.74,400.36,337.42z"/>
<path style="fill:#E57500;" d="M400.36,337.42v91.8H256V85.5h85.36l2.25,15l2.26,15l25.64,170.66
	C388.79,296.7,400.36,315.74,400.36,337.42z"/>
<g>
	<polygon style="fill:#FFC473;" points="388.5,0 388.5,115.5 123.5,115.5 123.5,0 193.75,0 193.75,49.57 223.75,49.57 223.75,0 
		288.25,0 288.25,49.57 318.25,49.57 318.25,0 	"/>
	<rect x="71.42" y="399.22" style="fill:#FFC473;" width="369.16" height="112.78"/>
</g>
<g>
	<polygon style="fill:#FFAA20;" points="388.5,115.5 256,115.5 256,0 288.25,0 288.25,49.57 318.25,49.57 318.25,0 388.5,0 	"/>
	<rect x="256" y="399.22" style="fill:#FFAA20;" width="184.58" height="112.78"/>
</g>
<g>
</g>
<g>
</g>
<g>
</g>
<g>
</g>
<g>
</g>
<g>
</g>
<g>
</g>
<g>
</g>
<g>
</g>
<g>
</g>
<g>
</g>
<g>
</g>
<g>
</g>
<g>
</g>
<g>
</g>
</svg>
