<?xml version="1.0" encoding="iso-8859-1"?>
<!-- Generator: Adobe Illustrator 19.0.0, SVG Export Plug-In . SVG Version: 6.00 Build 0)  -->
<svg version="1.1" id="Capa_1" xmlns="http://www.w3.org/2000/svg" xmlns:xlink="http://www.w3.org/1999/xlink" x="0px" y="0px"
	 viewBox="0 0 512 512" style="enable-background:new 0 0 512 512;" xml:space="preserve">
<path style="fill:#9F7953;" d="M305.501,19.799l-20.101,60l-29.099,78.3L181.3,360h-60c-8.401,0-15-6.601-15-15v-18.3
	c0-16.501-6.301-36-12.599-56.7C85.3,243.6,75.7,213.3,75.7,179.7c0-26.4,6-55.201,23.101-86.1c39.6-71.7,99.3-88.801,157.5-92.701
	C268.001,0.3,280,0,291.4,0C301.601,0,308.8,10.199,305.501,19.799z"/>
<path style="fill:#896746;" d="M305.501,19.799l-20.101,60l-29.099,78.3V0.899C268.001,0.3,280,0,291.4,0
	C301.601,0,308.8,10.199,305.501,19.799z"/>
<path style="fill:#F6B73C;" d="M404.801,171.599l-8.701,17.1c-22.798,45.901-62.699,44.7-105,35.099l33.301,33.301
	C352,284.399,355.6,323.699,346.3,360l-15.6,31H186.4l-20.1-31c0.3-41.7,1.199-69.3-15.3-107.401c-9.6-22.8-14.7-47.1-14.7-72.001
	c0-56.699,37.2-114,120-120c4.799-0.298,9.901-0.599,15-0.599c3.3,0,6.301,1.199,9,2.999l120,90
	C406,157.5,408.1,165.3,404.801,171.599z"/>
<path style="fill:#F29737;" d="M404.801,171.599l-8.701,17.1c-22.798,45.901-62.699,44.7-105,35.099l33.301,33.301
	C352,284.399,355.6,323.699,346.3,360l-15.6,31h-74.4V60.599c4.799-0.298,9.901-0.599,15-0.599c3.3,0,6.301,1.199,9,2.999l120,90
	C406,157.5,408.1,165.3,404.801,171.599z"/>
<g>
	<circle style="fill:#9F7953;" cx="241.3" cy="135" r="15"/>
	<path style="fill:#9F7953;" d="M361.3,452h-210c-5.2,0-10.02-2.695-12.759-7.119c-2.739-4.424-2.988-9.946-0.659-14.59L166.3,360
		h180l28.418,70.291c2.329,4.644,2.08,10.166-0.659,14.59S366.5,452,361.3,452z"/>
</g>
<path style="fill:#896746;" d="M346.3,360h-90v92h105c5.2,0,10.02-2.695,12.759-7.119s2.988-9.946,0.659-14.59L346.3,360z"/>
<path style="fill:#F6B73C;" d="M421.3,512h-330c-8.291,0-15-6.709-15-15c0-41.353,33.647-75,75-75h210c41.353,0,75,33.647,75,75
	C436.3,505.291,429.591,512,421.3,512z"/>
<path style="fill:#F29737;" d="M361.3,422h-105v90h165c8.291,0,15-6.709,15-15C436.3,455.647,402.653,422,361.3,422z"/>
<g>
</g>
<g>
</g>
<g>
</g>
<g>
</g>
<g>
</g>
<g>
</g>
<g>
</g>
<g>
</g>
<g>
</g>
<g>
</g>
<g>
</g>
<g>
</g>
<g>
</g>
<g>
</g>
<g>
</g>
</svg>
